<?xml version="1.0" encoding="utf-8"?>
<!-- Generator: Adobe Illustrator 26.0.3, SVG Export Plug-In . SVG Version: 6.00 Build 0)  -->
<svg version="1.0" id="Layer_1" xmlns="http://www.w3.org/2000/svg" xmlns:xlink="http://www.w3.org/1999/xlink" x="0px" y="0px"
	 viewBox="0 0 916 680.5" style="enable-background:new 0 0 916 680.5;" xml:space="preserve">
<style type="text/css">
	.st0{fill:#4E6B7C;}
	.st1{fill:#82E600;}
</style>
<path class="st0" d="M802.7,414.3c-60.8-4.4-136.6-8.2-219.1-8.2c-126.5,0-269.5,8.7-399.8,35.6c-21.8-27.5-48.4-49.2-89.2-66.3
	l-0.6,1.1c36,39.2,59.1,73,75.4,121.5c182.7-68.2,412.1-80.7,585.2-80.7c16.5,0,32.3,0.2,47.7,0.4L802.7,414.3z"/>
<path class="st1" d="M612.5,290.4c1.1-4.6,1.7-9.4,1.8-14.1c0-10.6-6.7-15.2-13.8-15.2c-11.7,0-17.7,6.9-20.5,29.1L612.5,290.4z
	 M381.9,344c-4.2,3.3-9.4,5.3-14.7,5.5c-11.4,0-12.8-9.5-12.8-20.6c0-13.2,3.5-36.6,7.6-45.9c5.9-14.2,14-18.1,27-18.1
	c0.9,0,1.8,0.1,2.7,0.2L381.9,344z M763.5,311.7c-4.2,38.2-9.9,46.1-20.9,46.1c-10,0-14-7.3-14-23.3c0.2-8.9,0.8-17.7,2-26.5
	c4.2-38.3,9.8-45.9,20.8-45.9c10,0,14,7.2,14,23.2c-0.2,8.9-0.9,17.7-2,26.5 M502.1,384.3h-54.8l24.9-201.7h54.7L502.1,384.3z
	 M613.3,349.3c12.7-0.4,25.4-2.4,37.6-6l-6.7,36.6c-16.6,3.8-33.6,5.6-50.6,5.5c-55.3,0-70.7-24-70.7-55.5
	c0-80.5,34.7-98.8,82.3-98.8c37.4,0,60.6,18.1,60.6,52.8c-0.3,12.9-2,25.7-5.2,38.2h-82.6C578.1,339.3,583.8,349.2,613.3,349.3
	 M398.1,232.2c-38.2,0-58.8,7.3-75.8,25.2c-16,17-24.4,46.8-24.4,78.6c0,27.5,6.9,50.4,40.9,50.4c15.6,0,29.1-5.9,41.7-13.2h0.6
	l-1.4,11h52.1l18.3-151c-15.2-0.6-32.6-1-52.1-1 M822,285.7c0-39-25.2-54.7-67.5-54.7c-51.2,0-82.3,23.5-82.3,103
	c0,39,25.2,54.8,67.6,54.8C790.9,388.7,822,366,822,285.7 M279.3,182.5c-13.2,48.8-30.6,96.3-52.2,142h-0.5
	c-5.8-38.6-8.8-94.1-8.8-142h-63.2c1.9,75.8,15.2,142.3,29.9,201.6h61c36.3-64.4,66.9-131.9,91.6-201.6H279.3z"/>
</svg>
